<?xml version="1.0" standalone="no"?>
<!DOCTYPE svg PUBLIC "-//W3C//DTD SVG 20010904//EN"
 "http://www.w3.org/TR/2001/REC-SVG-20010904/DTD/svg10.dtd">
<svg version="1.0" xmlns="http://www.w3.org/2000/svg"
 width="70.000000pt" height="70.000000pt" viewBox="0 0 70.000000 70.000000"
 preserveAspectRatio="xMidYMid meet">
<metadata>
Created by potrace 1.14, written by Peter Selinger 2001-2017
</metadata>
<g transform="translate(0.000000,70.000000) scale(0.100000,-0.100000)"
fill="#000000" stroke="none">
<path d="M266 688 c3 -5 0 -8 -7 -7 -8 1 -27 -4 -44 -11 -16 -7 -33 -13 -37
-12 -5 1 -8 -2 -8 -8 0 -5 -5 -10 -10 -10 -14 0 -92 -72 -85 -78 3 -3 -4 -12
-15 -19 -11 -8 -18 -18 -15 -23 3 -5 1 -11 -5 -15 -6 -4 -8 -10 -5 -15 3 -4
-2 -10 -10 -13 -8 -4 -12 -15 -10 -27 2 -11 0 -20 -4 -20 -5 0 -9 -34 -10 -76
-1 -42 2 -73 6 -71 4 3 9 -11 11 -31 1 -21 7 -39 12 -40 6 -2 8 -8 4 -13 -3
-5 0 -9 5 -9 6 0 11 -7 11 -15 0 -8 9 -24 20 -35 11 -11 20 -25 20 -32 0 -6 3
-8 7 -5 3 4 13 -2 20 -13 8 -11 19 -18 24 -15 5 4 9 1 9 -4 0 -15 92 -59 109
-53 8 2 11 0 8 -5 -4 -6 27 -10 78 -11 49 0 85 4 85 9 0 6 6 9 13 7 17 -4 77
22 77 34 0 5 5 6 11 2 6 -3 28 12 49 34 21 22 42 37 47 33 4 -3 5 -2 1 3 -4 5
4 24 19 42 14 19 23 34 19 34 -3 0 2 15 12 32 26 47 29 170 6 223 -10 22 -18
43 -18 47 -1 4 -7 13 -13 20 -7 6 -13 20 -13 30 0 10 -3 17 -8 15 -4 -1 -21
13 -38 31 -17 17 -34 32 -38 32 -4 0 -16 9 -28 20 -12 11 -29 20 -38 20 -9 0
-20 3 -24 7 -11 12 -38 16 -123 18 -51 2 -81 -1 -77 -7z"/>
</g>
</svg>
